# WaveFront *.obj file (generated by Autodesk ATF)

mtllib crane.mtl

g Body1

v 1.000000 -24.498761 23.944008
v -1.000000 -24.498761 23.944008
v -1.000000 -49.498761 23.944008
v 1.000000 -49.498761 23.944008
v -1.000000 -26.498761 21.944008
v 1.000000 -26.498761 21.944008
v 1.000000 -49.498761 21.944008
v -1.000000 -49.498761 21.944008
v -1.000000 -24.498761 10.944008
v -1.000000 -26.498761 10.944008
v 1.000000 -24.498761 10.944008
v 1.000000 -26.498761 10.944008
vt 0.000000 0.000000 0.000000
vt 200.000000 0.000000 0.000000
vt 0.000000 2500.000005 0.000000
vt 200.000000 2500.000005 0.000000
vt 0.000000 0.000000 0.000000
vt 200.000000 0.000000 0.000000
vt 0.000000 2300.000005 0.000000
vt 200.000000 2300.000005 0.000000
vt 200.000000 0.000000 0.000000
vt 200.000000 1100.000000 0.000000
vt -0.000000 0.000000 0.000000
vt -0.000000 1300.000000 0.000000
vt 2500.000005 1300.000000 0.000000
vt 2500.000005 1100.000000 0.000000
vt -0.000000 0.000000 0.000000
vt 200.000000 0.000000 0.000000
vt -0.000000 1300.000000 0.000000
vt 200.000000 1300.000000 0.000000
vt 0.000000 0.000000 0.000000
vt 199.999999 0.000000 0.000000
vt 0.000000 1100.000000 0.000000
vt 199.999999 1300.000000 0.000000
vt -2299.999994 1300.000000 0.000000
vt -2299.999994 1100.000000 0.000000
vt 0.000000 0.000000 0.000000
vt 200.000000 0.000000 0.000000
vt 0.000000 1100.000000 0.000000
vt 200.000000 1100.000000 0.000000
vt 100.000000 100.000000 0.000000
vt -100.000000 100.000000 0.000000
vt 100.000000 -100.000000 0.000000
vt -100.000000 -100.000000 0.000000
vt 100.000000 100.000000 0.000000
vt -100.000000 100.000000 0.000000
vt 100.000000 -100.000000 0.000000
vt -100.000000 -100.000000 0.000000
vn 0.000000 0.000000 100.000000
vn 0.000000 0.000000 100.000000
vn 0.000000 0.000000 100.000000
vn 0.000000 0.000000 100.000000
vn 0.000000 -0.000000 -100.000000
vn 0.000000 -0.000000 -100.000000
vn 0.000000 -0.000000 -100.000000
vn 0.000000 -0.000000 -100.000000
vn -100.000000 0.000000 0.000000
vn -100.000000 0.000000 0.000000
vn -100.000000 0.000000 0.000000
vn -100.000000 0.000000 0.000000
vn -100.000000 0.000000 0.000000
vn -100.000000 0.000000 0.000000
vn 0.000000 100.000000 0.000000
vn 0.000000 100.000000 0.000000
vn 0.000000 100.000000 0.000000
vn 0.000000 100.000000 0.000000
vn 100.000000 0.000000 0.000000
vn 100.000000 0.000000 0.000000
vn 100.000000 0.000000 0.000000
vn 100.000000 0.000000 0.000000
vn 100.000000 0.000000 0.000000
vn 100.000000 0.000000 0.000000
vn 0.000000 -100.000000 0.000000
vn 0.000000 -100.000000 0.000000
vn 0.000000 -100.000000 0.000000
vn 0.000000 -100.000000 0.000000
vn 0.000000 -100.000000 0.000000
vn 0.000000 -100.000000 0.000000
vn 0.000000 -100.000000 0.000000
vn 0.000000 -100.000000 0.000000
vn 0.000000 0.000000 -100.000000
vn 0.000000 0.000000 -100.000000
vn 0.000000 0.000000 -100.000000
vn 0.000000 0.000000 -100.000000
usemtl Steel_-_Satin
f 1/1/1 2/2/2 4/3/3
f 4/3/3 2/2/2 3/4/4
f 5/5/5 6/6/6 8/7/7
f 8/7/7 6/6/6 7/8/8
f 10/9/9 5/10/10 9/11/11
f 9/11/11 5/10/10 2/12/12
f 2/12/12 5/10/10 3/13/13
f 3/13/13 5/10/10 8/14/14
f 11/15/15 9/16/16 1/17/17
f 1/17/17 9/16/16 2/18/18
f 12/19/19 11/20/20 6/21/21
f 6/21/21 11/20/20 1/22/22
f 6/21/21 1/22/22 4/23/23
f 4/23/23 7/24/24 6/21/21
f 10/25/25 12/26/26 5/27/27
f 5/27/27 12/26/26 6/28/28
f 7/29/29 4/30/30 8/31/31
f 8/31/31 4/30/30 3/32/32
f 12/33/33 10/34/34 11/35/35
f 11/35/35 10/34/34 9/36/36
# 12 vertices
# 36 texture params
# 36 normals
# 20 facets

# 1 groups
